<?xml version="1.0" standalone="no"?>
<!DOCTYPE svg PUBLIC "-//W3C//DTD SVG 20010904//EN"
 "http://www.w3.org/TR/2001/REC-SVG-20010904/DTD/svg10.dtd">
<svg version="1.0" xmlns="http://www.w3.org/2000/svg"
 width="1280.000000pt" height="1250.000000pt" viewBox="0 0 1280.000000 1250.000000"
 preserveAspectRatio="xMidYMid meet">
<metadata>
Created by potrace 1.15, written by Peter Selinger 2001-2017
</metadata>
<g transform="translate(0.000000,1250.000000) scale(0.100000,-0.100000)"
fill="#000000" stroke="none">
<path d="M5390 12469 c255 -121 484 -323 659 -583 27 -39 342 -582 701 -1206
359 -624 693 -1204 742 -1289 49 -85 87 -159 84 -165 -2 -6 -203 -123 -446
-261 l-443 -250 74 -7 c41 -3 508 -12 1039 -19 531 -6 1160 -15 1398 -18 l433
-6 19 30 c59 99 1421 2548 1418 2551 -2 2 -201 -114 -442 -256 -241 -143 -441
-260 -445 -260 -3 1 -184 305 -401 677 -217 372 -421 716 -453 764 -100 152
-236 251 -414 302 l-78 22 -1755 3 -1755 2 65 -31z"/>
<path d="M4395 12370 c-410 -44 -759 -250 -979 -578 -36 -53 -346 -582 -690
-1175 l-624 -1077 81 -48 c45 -27 630 -367 1300 -757 1023 -594 1220 -706
1231 -694 7 8 325 554 706 1214 382 660 740 1279 796 1377 l102 176 -264 442
c-145 243 -295 483 -333 533 -236 314 -547 510 -909 571 -111 19 -314 27 -417
16z"/>
<path d="M10084 7906 c-704 -402 -1290 -738 -1301 -746 -20 -15 1 -52 781
-1400 l802 -1385 524 -3 c559 -2 650 3 825 49 185 48 351 123 470 211 87 64
255 233 315 316 158 219 255 453 289 696 30 217 -6 464 -101 688 -27 63 -290
527 -673 1188 -345 597 -633 1092 -639 1101 -10 14 -184 -83 -1292 -715z"/>
<path d="M2300 7999 c-663 -14 -1464 -29 -1883 -36 -224 -3 -404 -10 -400 -14
5 -5 204 -119 443 -254 239 -136 439 -250 443 -254 5 -5 -181 -340 -413 -745
-279 -490 -429 -761 -445 -809 -61 -182 -57 -353 10 -520 19 -45 1709 -2969
1735 -2999 3 -4 4 53 2 127 -3 74 1 172 7 217 25 178 118 472 198 631 13 27
295 517 627 1090 331 573 657 1137 724 1252 67 116 128 219 135 230 14 18 33
9 448 -229 239 -137 445 -256 459 -265 23 -15 24 -15 17 3 -5 11 -328 597
-720 1303 l-712 1283 -150 -2 c-82 0 -319 -5 -525 -9z"/>
<path d="M8359 5070 c-10 -14 -353 -586 -763 -1272 l-746 -1246 763 -1273 762
-1273 3 521 2 522 868 3 c958 4 908 1 1060 69 174 78 266 177 424 451 64 112
445 775 846 1475 402 699 735 1281 742 1292 8 15 -13 6 -72 -33 -218 -141
-459 -226 -730 -255 -65 -7 -608 -11 -1618 -11 l-1520 0 -2 528 c-3 493 -4
525 -19 502z"/>
<path d="M2545 3643 c-255 -456 -296 -539 -349 -716 -109 -362 -105 -653 15
-962 170 -439 563 -779 1016 -880 151 -33 240 -35 1515 -35 l1278 0 0 1510 0
1510 -1618 0 -1617 0 -240 -427z"/>
</g>
</svg>
